<?xml version="1.0" encoding="UTF-8" standalone="no"?>
<svg
   xmlns:dc="http://purl.org/dc/elements/1.1/"
   xmlns:cc="http://creativecommons.org/ns#"
   xmlns:rdf="http://www.w3.org/1999/02/22-rdf-syntax-ns#"
   xmlns:svg="http://www.w3.org/2000/svg"
   xmlns="http://www.w3.org/2000/svg"
   version="1.1"
   id="svg833"
   xml:space="preserve"
   width="1023.9999"
   height="1023.9999"
   viewBox="0 0 1023.9999 1023.9999"><metadata
     id="metadata839"><rdf:RDF><cc:Work
         rdf:about=""><dc:format>image/svg+xml</dc:format><dc:type
           rdf:resource="http://purl.org/dc/dcmitype/StillImage" /><dc:title></dc:title></cc:Work></rdf:RDF></metadata><defs
     id="defs837" /><g
     id="g841"
     transform="matrix(1.3333333,0,0,1.3333333,0,6.9333312e-6)"><g
       id="g843"><path
         d="M 0,0 H 768 V 768 H 0 Z"
         style="fill:#042110;fill-opacity:0;fill-rule:nonzero;stroke:none"
         id="path845" /><path
         d="m 440.457,558.414 c 0,21.098 -25.176,48.285 -56.457,60.957 l -56.457,22.871 V 451.809 c 0,-21.098 25.18,-48.286 56.457,-60.957 l 56.457,-22.872 z"
         style="fill:#a7cd49;fill-opacity:1;fill-rule:evenodd;stroke:none"
         id="path847" /><path
         d="m 525.027,125.758 -87.746,50.66 -58.504,33.777 c -16.207,9.356 -29.25,35.7 -29.25,59.067 v 42.179 l 87.754,-50.664 58.496,-33.773 c 16.203,-9.356 29.25,-35.699 29.25,-59.066 z m 0,107.371 L 384,314.551 289.984,368.832 c -26.043,15.035 -47.011,56.215 -47.011,92.332 v 65.195 L 384,444.938 478.016,390.656 c 26.043,-15.035 47.011,-56.218 47.011,-92.336 z"
         style="fill:#e6e6e6;fill-opacity:1;fill-rule:evenodd;stroke:none"
         id="path849" /><path
         d="m 440.457,412.34 -112.914,65.195 112.914,-33.34 z"
         style="fill:#000000;fill-opacity:0.5;fill-rule:nonzero;stroke:none"
         id="path851" /></g></g></svg>
